<svg width="14" height="16" viewBox="0 0 14 16" fill="none" xmlns="http://www.w3.org/2000/svg">
<path d="M2.8335 15.5C2.37517 15.5 1.98267 15.3367 1.656 15.01C1.32933 14.6833 1.16628 14.2911 1.16683 13.8333V3C0.930721 3 0.732666 2.92 0.572666 2.76C0.412666 2.6 0.332943 2.40223 0.333499 2.16667C0.333499 1.93056 0.413499 1.7325 0.573499 1.5725C0.733499 1.4125 0.931277 1.33278 1.16683 1.33334H4.50017C4.50017 1.09723 4.58017 0.89917 4.74017 0.739169C4.90017 0.579169 5.09794 0.499447 5.3335 0.500003H8.66683C8.90294 0.500003 9.101 0.580003 9.261 0.740003C9.421 0.900003 9.50072 1.09778 9.50017 1.33334H12.8335C13.0696 1.33334 13.2677 1.41334 13.4277 1.57334C13.5877 1.73334 13.6674 1.93111 13.6668 2.16667C13.6668 2.40278 13.5868 2.60084 13.4268 2.76084C13.2668 2.92084 13.0691 3.00056 12.8335 3V13.8333C12.8335 14.2917 12.6702 14.6842 12.3435 15.0108C12.0168 15.3375 11.6246 15.5006 11.1668 15.5H2.8335ZM2.8335 3V13.8333H11.1668V3H2.8335ZM4.50017 11.3333C4.50017 11.5694 4.58017 11.7675 4.74017 11.9275C4.90017 12.0875 5.09794 12.1672 5.3335 12.1667C5.56961 12.1667 5.76767 12.0867 5.92767 11.9267C6.08767 11.7667 6.16739 11.5689 6.16683 11.3333V5.5C6.16683 5.26389 6.08683 5.06584 5.92683 4.90584C5.76683 4.74584 5.56905 4.66611 5.3335 4.66667C5.09739 4.66667 4.89933 4.74667 4.73933 4.90667C4.57933 5.06667 4.49961 5.26445 4.50017 5.5V11.3333ZM7.8335 11.3333C7.8335 11.5694 7.9135 11.7675 8.0735 11.9275C8.2335 12.0875 8.43128 12.1672 8.66683 12.1667C8.90294 12.1667 9.101 12.0867 9.261 11.9267C9.421 11.7667 9.50072 11.5689 9.50017 11.3333V5.5C9.50017 5.26389 9.42017 5.06584 9.26017 4.90584C9.10017 4.74584 8.90239 4.66611 8.66683 4.66667C8.43072 4.66667 8.23267 4.74667 8.07267 4.90667C7.91267 5.06667 7.83294 5.26445 7.8335 5.5V11.3333Z" fill="#666666"/>
</svg>
